<?xml version="1.0" encoding="UTF-8" standalone="no"?>
<!-- Created with Inkscape (http://www.inkscape.org/) -->

<svg
   version="1.1"
   id="svg2"
   width="786.66669"
   height="1416"
   viewBox="0 0 786.66669 1416"
   sodipodi:docname="Logo wektor (1).ai"
   xmlns:inkscape="http://www.inkscape.org/namespaces/inkscape"
   xmlns:sodipodi="http://sodipodi.sourceforge.net/DTD/sodipodi-0.dtd"
   xmlns="http://www.w3.org/2000/svg"
   xmlns:svg="http://www.w3.org/2000/svg">
  <defs
     id="defs6">
    <clipPath
       clipPathUnits="userSpaceOnUse"
       id="clipPath16">
      <path
         d="M 0,1062 H 590 V 0 H 0 Z"
         id="path14" />
    </clipPath>
  </defs>
  <sodipodi:namedview
     id="namedview4"
     pagecolor="#ffffff"
     bordercolor="#ffffff"
     borderopacity="0.25"
     inkscape:showpageshadow="2"
     inkscape:pageopacity="0.0"
     inkscape:pagecheckerboard="0"
     inkscape:deskcolor="#d1d1d1" />
  <g
     id="g8"
     inkscape:groupmode="layer"
     inkscape:label="Logo wektor (1)"
     transform="matrix(1.3333333,0,0,-1.3333333,0,1416)">
    <g
       id="g10">
      <g
         id="g12"
         clip-path="url(#clipPath16)">
        <g
           id="g18"
           transform="translate(163.2164,161.7491)">
          <path
             d="m 0,0 c 0,0 -21.951,-14.341 -37.171,-13.756 -15.219,0.585 -35.414,7.61 -38.048,11.707 0,0 -25.757,-19.317 -44.488,-14.634 0,0 26.634,46.244 27.219,47.122 0.586,0.878 13.756,23.707 40.098,4.683 0,0 4.814,-5.854 6.358,-4.976 1.544,0.878 22.032,14.927 22.032,14.927 0,0 17.268,3.512 30.146,-10.829 C 19.024,19.902 29.561,-11.122 29.561,-11.122 29.561,-11.122 4.098,-5.561 0,0 M -27.219,57.36 C -35.122,56.183 -46.244,44.488 -46.244,44.488 L -48,45.366 c -25.756,23.122 -49.463,11.414 -64.976,-23.122 -15.512,-34.537 -31.744,-40.833 -31.17,-41.854 3.073,-5.463 19.17,-8.39 19.17,-8.39 23.805,-5.268 45.659,3.317 50.439,4.683 4.781,1.366 11.025,-3.61 11.025,-3.61 28.097,-15.512 63.805,9.073 63.805,9.073 45.365,-14.927 51.805,-1.756 51.805,-1.756 0,0 -19.317,28.39 -34.537,56.488 -15.22,28.098 -36.878,21.659 -44.78,20.482 M -47.707,-80.781 c -56.488,3.805 -83.122,39.22 -83.122,39.22 0,0 27.073,-51.907 88.244,-55.902 61.17,-3.996 88.243,55.902 88.243,55.902 0,0 -36.877,-43.024 -93.365,-39.22 M 186.927,785.366 C 240.39,781.463 407.729,685.073 407.729,685.073 l -58.851,41.366 C 288,768.195 242.732,791.054 242.732,791.054 c -56.195,36.517 -124.098,41.922 -124.098,41.922 -96.39,16 -184.585,-33.561 -184.585,-33.561 l 6.634,-53.464 c 106.146,78.439 246.244,39.415 246.244,39.415 m 72.975,-459.903 c -14.634,-16.975 -43.317,-45.658 -43.317,-45.658 0,0 -27.512,-25.171 -28.683,-27.512 -1.17,-2.342 -52.097,-42.732 -66.731,-49.756 0,0 48,21.073 100.097,75.512 0,0 70.829,67.902 96,124.097 25.171,56.195 41.561,111.22 41.561,111.22 0,0 -36.292,-97.756 -47.414,-113.561 0,0 -36.878,-57.366 -51.513,-74.342 M 49.756,640.244 c 1.025,0.585 3.805,0.146 4.537,0 0.731,-0.146 2.488,-5.187 2.488,-5.187 0,0 -14.196,-8.13 -18.147,-8.569 -3.951,-0.439 -3.073,5.561 -3.366,6.731 -0.292,1.171 13.464,6.44 14.488,7.025 m -14.488,1.024 16.976,5.589 0.878,-2.955 -17.854,-7.392 z m 25.464,-14.803 c 0,0 -0.122,-0.319 -11.708,-7.002 -13.397,-7.728 -12.292,1.61 -11.707,3.074 0.585,1.463 18.585,9.658 20.341,9.804 1.757,0.147 3.074,-5.876 3.074,-5.876 m 4.39,-8.758 c -0.146,-1.463 -13.61,-14.341 -17.269,-16.975 -3.659,-2.634 -7.17,7.17 -6.877,10.097 0.292,2.927 19.609,12.293 19.793,12.586 0.184,0.292 4.445,-4.787 4.353,-5.708 m 62.927,-33.658 c 32.927,-0.439 47.707,22.683 47.707,22.683 l 20.195,-20.049 c -15.366,-19.61 -46.683,-41.268 -83.414,-36.293 -36.732,4.976 -64.83,43.317 -64.683,45.659 0.146,2.341 18.878,17.853 18.878,17.853 11.268,-16.975 28.39,-29.414 61.317,-29.853 m -43.025,70.463 c 0,0 3.513,0.512 4.317,0.439 0.805,-0.073 4.683,-2.78 4.903,-3.585 0.219,-0.805 0,-3.951 0,-3.951 -0.659,-1.098 -8.049,-0.439 -9.439,0.804 -1.39,1.244 0.219,6.293 0.219,6.293 m 11.269,-18.658 c 6.146,2.634 7.756,-3.513 7.756,-3.513 0.023,-0.248 0.043,-0.491 0.06,-0.728 0.505,-7.157 -1.963,-9.076 -1.963,-9.076 -7.317,-3.952 -9.658,2.487 -9.658,2.487 0,0 -2.342,8.195 3.805,10.83 M 108,649.317 c 0.293,2.342 1.902,2.781 1.902,2.781 0,0 2.635,-0.879 3.22,-1.19 0.585,-0.312 1.61,-3.201 1.463,-4.051 -0.146,-0.85 -1.609,-2.223 -1.609,-2.223 -3.22,-3.951 -6.293,-0.878 -7.025,0 -0.732,0.878 1.756,2.342 2.049,4.683 m 39.512,-10.976 c 0.293,0.586 1.903,1.025 1.903,1.025 0,0 2.341,0.439 3.073,0 0.731,-0.439 2.78,-0.586 2.634,-3.659 -0.146,-3.073 -2.634,-4.683 -2.634,-4.683 -3.366,-1.609 -5.122,1.317 -6,2.635 -0.878,1.317 0.731,4.097 1.024,4.682 m 30.244,-30.731 c 0.098,0.292 2.341,8.195 4.585,8.195 2.244,0 4.098,-0.683 4.683,-1.268 0.586,-0.586 16.098,-13.952 16.586,-15.708 0.487,-1.756 -4.781,-12 -6.244,-10.439 -1.464,1.561 -18.927,16.293 -19.61,18.634 z m 9.415,15.878 c 0.658,0.219 20.853,-16.244 21.073,-17.415 0.219,-1.171 -2.488,-5.414 -2.488,-5.414 0,0 -19.756,16.317 -20.707,18 -0.952,1.682 1.463,4.609 2.122,4.829 m 3,5.394 c 0.805,0.199 22.244,-13.443 22.317,-14.102 0.073,-0.658 -1.75,-5.481 -2.195,-5.926 -1.171,-1.171 -20.342,14.341 -21.805,15.731 -1.464,1.391 0.878,4.098 1.683,4.297 M 1.756,622.829 c 0,0 22.183,-44.678 41.561,-60 25.171,-19.902 25.434,-31.723 75.512,-35.122 64.683,-4.39 104.488,56.195 106.244,60 1.756,3.805 28.976,41.269 33.366,40.391 4.39,-0.879 36,-22.244 36,-22.244 0,0 -73.756,81.951 -194.927,76.683 -121.171,-5.269 -153.366,-103.025 -156.878,-138.732 -3.512,-35.707 -0.732,-69.073 -1.61,-72.732 -0.878,-3.658 -1.024,-44.488 -1.756,-46.097 -0.731,-1.61 -2.927,-46.537 -2.927,-46.537 l -5.707,-137.854 -3.219,-64.683 c 0,0 5.561,-21.365 33.366,-17.268 0,0 14.926,3.22 28.975,12 0,0 6.732,2.049 19.025,-2.049 12.292,-4.097 18.438,10.244 18.438,10.244 0,0 6.147,12 2.635,37.464 0,0 -1.464,-26.927 -18.439,-33.952 0,0 -8.513,-0.883 -14.049,0.878 -4.293,1.366 -8.94,-1.928 -12.241,-4.959 -1.783,-1.639 -4.04,-2.647 -6.451,-2.881 -6.993,-0.68 -21.228,-1.041 -28.137,6.084 -9.366,9.659 -14.927,22.537 -13.464,55.025 1.464,32.488 4.098,47.122 4.098,64.097 0,16.976 3.219,72.293 3.219,74.634 0,2.342 3.22,21.366 2.634,26.342 -0.585,4.976 -1.17,36.293 -0.878,38.927 0.293,2.634 2.049,24 2.049,24 l 2.927,66.731 c 0,0 3.805,42.147 14.927,45.952 0,0 51.512,-38.049 92.488,-49.171 0,0 38.634,-11.122 50.341,-9.951 0,0 -55.317,7.902 -84,32.488 -28.683,24.585 -43.024,52.682 -43.024,52.682 0,0 14.341,18.732 19.902,19.61"
             style="fill:#ffffff;fill-opacity:1;fill-rule:nonzero;stroke:none"
             id="path20" />
        </g>
      </g>
    </g>
  </g>
</svg>
