<?xml version="1.0" encoding="UTF-8"?><svg id="Warstwa_4" xmlns="http://www.w3.org/2000/svg" viewBox="0 0 590 1062"><path d="m164.97,277.42s22.18,44.68,41.56,60c25.17,19.9,25.43,31.72,75.51,35.12,64.68,4.39,104.49-56.2,106.24-60,1.76-3.8,28.98-41.27,33.37-40.39,4.39.88,36,22.24,36,22.24,0,0-73.76-81.95-194.93-76.68-121.17,5.27-153.37,103.02-156.88,138.73-3.51,35.71-.73,69.07-1.61,72.73-.88,3.66-1.02,44.49-1.76,46.1s-2.93,46.54-2.93,46.54l-5.71,137.85-3.22,64.68s5.56,21.37,33.37,17.27c0,0,14.93-3.22,28.98-12,0,0,6.73-2.05,19.02,2.05,12.29,4.1,18.44-10.24,18.44-10.24,0,0,6.15-12,2.63-37.46,0,0-1.46,26.93-18.44,33.95,0,0-8.51.88-14.05-.88-4.29-1.37-8.94,1.93-12.24,4.96-1.78,1.64-4.04,2.65-6.45,2.88-6.99.68-21.23,1.04-28.14-6.08-9.37-9.66-14.93-22.54-13.46-55.02,1.46-32.49,4.1-47.12,4.1-64.1s3.22-72.29,3.22-74.63,3.22-21.37,2.63-26.34c-.59-4.98-1.17-36.29-.88-38.93s2.05-24,2.05-24l2.93-66.73s3.8-42.15,14.93-45.95c0,0,51.51,38.05,92.49,49.17,0,0,38.63,11.12,50.34,9.95,0,0-55.32-7.9-84-32.49-28.68-24.59-43.02-52.68-43.02-52.68,0,0,14.34-18.73,19.9-19.61Zm188.41-6.05c.8-.2,22.24,13.44,22.32,14.1.07.66-1.75,5.48-2.2,5.93-1.17,1.17-20.34-14.34-21.8-15.73s.88-4.1,1.68-4.3Zm-3,5.39c.66-.22,20.85,16.24,21.07,17.41.22,1.17-2.49,5.41-2.49,5.41,0,0-19.76-16.32-20.71-18-.95-1.68,1.46-4.61,2.12-4.83Zm-9.41,15.88c.1-.29,2.34-8.2,4.59-8.2s4.1.68,4.68,1.27c.59.59,16.1,13.95,16.59,15.71s-4.78,12-6.24,10.44-18.93-16.29-19.61-18.63v-.59Zm-30.24-30.73c.29-.59,1.9-1.02,1.9-1.02,0,0,2.34-.44,3.07,0s2.78.59,2.63,3.66c-.15,3.07-2.63,4.68-2.63,4.68-3.37,1.61-5.12-1.32-6-2.63-.88-1.32.73-4.1,1.02-4.68Zm-39.51-10.98c.29-2.34,1.9-2.78,1.9-2.78,0,0,2.63.88,3.22,1.19.59.31,1.61,3.2,1.46,4.05-.15.85-1.61,2.22-1.61,2.22-3.22,3.95-6.29.88-7.02,0-.73-.88,1.76-2.34,2.05-4.68Zm-11.71,13.46c6.15-2.63,7.76,3.51,7.76,3.51.02.25.04.49.06.73.51,7.16-1.96,9.08-1.96,9.08-7.32,3.95-9.66-2.49-9.66-2.49,0,0-2.34-8.2,3.8-10.83Zm-11.27-18.66s3.51-.51,4.32-.44c.8.07,4.68,2.78,4.9,3.59s0,3.95,0,3.95c-.66,1.1-8.05.44-9.44-.8-1.39-1.24.22-6.29.22-6.29Zm43.02,70.46c32.93.44,47.71-22.68,47.71-22.68l20.2,20.05c-15.37,19.61-46.68,41.27-83.41,36.29-36.73-4.98-64.83-43.32-64.68-45.66.15-2.34,18.88-17.85,18.88-17.85,11.27,16.98,28.39,29.41,61.32,29.85Zm-62.93-33.66c-.15,1.46-13.61,14.34-17.27,16.98s-7.17-7.17-6.88-10.1c.29-2.93,19.61-12.29,19.79-12.59s4.44,4.79,4.35,5.71Zm-4.39-8.76s-.12.32-11.71,7c-13.4,7.73-12.29-1.61-11.71-3.07.59-1.46,18.59-9.66,20.34-9.8s3.07,5.88,3.07,5.88Zm-25.46-14.8l16.98-5.59.88,2.95-17.85,7.39v-4.76Zm14.49,1.02c1.02-.59,3.8-.15,4.54,0,.73.15,2.49,5.19,2.49,5.19,0,0-14.2,8.13-18.15,8.57-3.95.44-3.07-5.56-3.37-6.73s13.46-6.44,14.49-7.02Zm210.15,314.78c-14.63,16.98-43.32,45.66-43.32,45.66,0,0-27.51,25.17-28.68,27.51-1.17,2.34-52.1,42.73-66.73,49.76,0,0,48-21.07,100.1-75.51,0,0,70.83-67.9,96-124.1,25.17-56.2,41.56-111.22,41.56-111.22,0,0-36.29,97.76-47.41,113.56,0,0-36.88,57.37-51.51,74.34Zm-72.98-459.9c53.46,3.9,220.8,100.29,220.8,100.29l-58.85-41.37c-60.88-41.76-106.15-64.61-106.15-64.61-56.2-36.52-124.1-41.92-124.1-41.92-96.39-16-184.59,33.56-184.59,33.56l6.63,53.46c106.15-78.44,246.24-39.41,246.24-39.41ZM115.51,981.03c-56.49-3.8-83.12-39.22-83.12-39.22,0,0,27.07,51.91,88.24,55.9,61.17,4,88.24-55.9,88.24-55.9,0,0-36.88,43.02-93.37,39.22Zm20.49-138.14c-7.9,1.18-19.02,12.87-19.02,12.87l-1.76-.88c-25.76-23.12-49.46-11.41-64.98,23.12-15.51,34.54-31.74,40.83-31.17,41.85,3.07,5.46,19.17,8.39,19.17,8.39,23.8,5.27,45.66-3.32,50.44-4.68s11.02,3.61,11.02,3.61c28.1,15.51,63.8-9.07,63.8-9.07,45.37,14.93,51.8,1.76,51.8,1.76,0,0-19.32-28.39-34.54-56.49-15.22-28.1-36.88-21.66-44.78-20.48Zm27.22,57.36s-21.95,14.34-37.17,13.76c-15.22-.59-35.41-7.61-38.05-11.71,0,0-25.76,19.32-44.49,14.63,0,0,26.63-46.24,27.22-47.12s13.76-23.71,40.1-4.68c0,0,4.81,5.85,6.36,4.98s22.03-14.93,22.03-14.93c0,0,17.27-3.51,30.15,10.83,12.88,14.34,23.41,45.37,23.41,45.37,0,0-25.46-5.56-29.56-11.12Z"/></svg>